<svg xmlns="http://www.w3.org/2000/svg" viewBox="0 0 108 108">
  <!-- Background circle -->
  <circle cx="54" cy="54" r="54" fill="#111827"/>
  <!-- 4 claw scratch marks, rotated diagonally -->
  <g transform="rotate(-25 54 54)">
    <!-- Scratch 1 (outer left, shorter) -->
    <path fill="#FFFFFF" d="M31,22 C28,44,28,64,31,86 C34,64,34,44,31,22Z"/>
    <!-- Scratch 2 (inner left, longer) -->
    <path fill="#FFFFFF" d="M43,16 C40,40,40,64,43,92 C46,64,46,40,43,16Z"/>
    <!-- Scratch 3 (inner right, longer) -->
    <path fill="#FFFFFF" d="M55,16 C52,40,52,64,55,92 C58,64,58,40,55,16Z"/>
    <!-- Scratch 4 (outer right, shorter) -->
    <path fill="#FFFFFF" d="M67,22 C64,44,64,64,67,86 C70,64,70,44,67,22Z"/>
  </g>
</svg>
